<?xml version="1.0" encoding="utf-8"?>
<!-- Generator: Adobe Illustrator 22.1.0, SVG Export Plug-In . SVG Version: 6.00 Build 0)  -->
<svg version="1.1" id="Capa_1" xmlns="http://www.w3.org/2000/svg" xmlns:xlink="http://www.w3.org/1999/xlink" x="0px" y="0px"
	 viewBox="0 0 24 24" style="enable-background:new 0 0 24 24;" xml:space="preserve">
<style type="text/css">
	.st0{fill:#D84F50;}
</style>
<g>
	<g>
		<g>
			<path class="st0" d="M11,22.1H2.8c-0.3,0-0.6-0.1-0.8-0.4c-0.2-0.2-0.2-0.6-0.1-0.8C2.8,18,5.7,16,8.8,16c1.5,0,2.8,0.4,4,1.3
				c0.4,0.3,1,0.2,1.3-0.2c0.3-0.4,0.2-1-0.2-1.3c-0.6-0.4-1.2-0.7-1.9-1c0.9-0.8,1.5-1.9,1.6-3.1c1.3-1.3,3.1-2,4.9-2
				c1.5,0,2.8,0.4,4,1.3c0.4,0.3,1,0.2,1.3-0.2c0.3-0.4,0.2-1-0.2-1.3c-0.6-0.4-1.2-0.7-1.9-1c1-0.9,1.6-2.1,1.6-3.5
				c0-2.6-2.1-4.8-4.8-4.8c-2.6,0-4.8,2.1-4.8,4.8c0,1.4,0.6,2.7,1.6,3.5c-0.1,0.1-0.3,0.1-0.4,0.2c-0.6,0.3-1.1,0.6-1.7,0.9
				c-0.7-1.8-2.4-3-4.4-3C6.2,6.4,4,8.5,4,11.2c0,1.4,0.6,2.6,1.5,3.5c-2.5,1-4.6,3-5.4,5.6c-0.3,0.9-0.1,1.8,0.4,2.5
				C1.1,23.6,1.9,24,2.8,24H11c0.5,0,0.9-0.4,0.9-0.9C11.9,22.5,11.5,22.1,11,22.1z M18.5,1.9c1.6,0,2.9,1.3,2.9,2.9
				s-1.3,2.9-2.9,2.9c-1.6,0-2.9-1.3-2.9-2.9S16.9,1.9,18.5,1.9z M8.8,8.3c1.6,0,2.9,1.3,2.9,2.9s-1.3,2.9-2.9,2.9s-2.9-1.3-2.9-2.9
				S7.2,8.3,8.8,8.3z"/>
			<path class="st0" d="M23.6,15.3c-0.4-0.3-1-0.2-1.3,0.2L17.7,22c-0.1,0.1-0.3,0.2-0.4,0.2c-0.1,0-0.3,0-0.4-0.1l-3-2.9
				c-0.4-0.4-1-0.3-1.3,0c-0.4,0.4-0.3,1,0,1.3l3,2.9c0.4,0.4,1,0.7,1.7,0.7c0.1,0,0.1,0,0.2,0c0.7,0,1.3-0.4,1.7-0.9c0,0,0,0,0,0
				l4.6-6.5C24.1,16.2,24,15.6,23.6,15.3z"/>
		</g>
	</g>
</g>
</svg>
