<?xml version="1.0" encoding="utf-8"?>
<!-- Generator: Adobe Illustrator 22.1.0, SVG Export Plug-In . SVG Version: 6.00 Build 0)  -->
<svg version="1.1" id="Capa_1" xmlns="http://www.w3.org/2000/svg" xmlns:xlink="http://www.w3.org/1999/xlink" x="0px" y="0px"
	 viewBox="0 0 21 21" style="enable-background:new 0 0 21 21;" xml:space="preserve">
<style type="text/css">
	.st0{fill:#A7A8B0;}
</style>
<g>
	<g>
		<path class="st0" d="M10.5,0C4.7,0,0,4.7,0,10.5S4.7,21,10.5,21S21,16.3,21,10.5S16.3,0,10.5,0z M10.5,19.7
			c-5.1,0-9.2-4.1-9.2-9.2s4.1-9.2,9.2-9.2s9.2,4.1,9.2,9.2S15.6,19.7,10.5,19.7z"/>
	</g>
</g>
<g>
	<g>
		<path class="st0" d="M10.5,9.8c-1.1,0-2-0.6-2-1.3c0-0.7,0.9-1.3,2-1.3c0.6,0,1.2,0.2,1.5,0.5C12.3,8,12.7,8,13,7.7
			c0.2-0.3,0.2-0.7-0.1-0.9c-0.5-0.4-1.1-0.7-1.7-0.8V5.3c0-0.4-0.3-0.7-0.7-0.7c-0.4,0-0.7,0.3-0.7,0.7V6C8.3,6.2,7.2,7.3,7.2,8.5
			c0,1.4,1.5,2.6,3.3,2.6c1.1,0,2,0.6,2,1.3c0,0.7-0.9,1.3-2,1.3c-0.6,0-1.2-0.2-1.5-0.5C8.7,13,8.3,13,8,13.3
			c-0.2,0.3-0.2,0.7,0.1,0.9c0.5,0.4,1.1,0.7,1.7,0.8v0.7c0,0.4,0.3,0.7,0.7,0.7c0.4,0,0.7-0.3,0.7-0.7V15c1.5-0.2,2.6-1.3,2.6-2.6
			C13.8,11,12.3,9.8,10.5,9.8z"/>
	</g>
</g>
</svg>
