<?xml version="1.0" encoding="utf-8"?>
<!-- Generator: Adobe Illustrator 22.1.0, SVG Export Plug-In . SVG Version: 6.00 Build 0)  -->
<svg version="1.1" id="Layer_1" xmlns="http://www.w3.org/2000/svg" xmlns:xlink="http://www.w3.org/1999/xlink" x="0px" y="0px"
	 viewBox="0 0 18 18" style="enable-background:new 0 0 18 18;" xml:space="preserve">
<style type="text/css">
	.st0{fill:#A2A3AB;}
</style>
<path class="st0" d="M11.5,4.5c0,0,0.1-0.1,0.6-0.1l1.5,0c0.5,0,0.9-0.4,0.9-0.9V0.9C14.4,0.4,14,0,13.5,0l-2.2,0
	C10,0,8.8,0.4,8,1.3c-0.8,0.8-1.3,2-1.3,3.4v1.4H5.1C4.6,6.1,4.2,6.5,4.2,7v2.8c0,0.5,0.4,0.9,0.9,0.9h1.7v6.5
	c0,0.5,0.4,0.9,0.9,0.9h2.9c0.5,0,0.9-0.4,0.9-0.9v-6.5h2.1c0.5,0,0.9-0.4,0.9-0.9l0-2.8c0-0.3-0.2-0.6-0.4-0.8
	c-0.1-0.1-0.3-0.1-0.4-0.1h-2V5C11.4,4.6,11.4,4.5,11.5,4.5z"/>
</svg>
