<?xml version="1.0" encoding="utf-8"?>
<!-- Generator: Adobe Illustrator 22.1.0, SVG Export Plug-In . SVG Version: 6.00 Build 0)  -->
<svg version="1.1" id="Layer_1" xmlns="http://www.w3.org/2000/svg" xmlns:xlink="http://www.w3.org/1999/xlink" x="0px" y="0px"
	 viewBox="0 0 24 24" style="enable-background:new 0 0 24 24;" xml:space="preserve">
<style type="text/css">
	.st0{fill:#D84F50;}
</style>
<path class="st0" d="M19.3,16.5c-2.6,0-4.7-1.4-4.7-3.3s2.1-3.3,4.7-3.3s4.7,1.4,4.7,3.3S21.9,16.5,19.3,16.5z M19.3,11.8
	c-0.8,0-1.6,0.2-2.2,0.5c-0.4,0.3-0.7,0.6-0.7,0.9s0.2,0.6,0.7,0.9c0.6,0.3,1.3,0.5,2.2,0.5c0.8,0,1.6-0.2,2.2-0.5
	c0.4-0.3,0.7-0.6,0.7-0.9s-0.2-0.6-0.7-0.9C20.9,12,20.1,11.8,19.3,11.8z M23.6,22.7c0.4-0.3,0.5-0.9,0.2-1.3
	c-0.3-0.4-0.9-0.5-1.3-0.2c-1.7,1.3-4.7,1.3-6.4,0c-0.4-0.3-1-0.2-1.3,0.2c-0.3,0.4-0.2,1,0.2,1.3c1.2,0.8,2.7,1.3,4.3,1.3
	C20.9,24,22.4,23.5,23.6,22.7z M23.6,18.9c0.4-0.3,0.5-0.9,0.2-1.3c-0.3-0.4-0.9-0.5-1.3-0.2c-1.7,1.3-4.7,1.3-6.4,0
	c-0.4-0.3-1-0.2-1.3,0.2c-0.3,0.4-0.2,1,0.2,1.3c1.2,0.8,2.7,1.3,4.3,1.3C20.9,20.2,22.4,19.7,23.6,18.9z M13,23.1
	c0-0.5-0.4-0.9-0.9-0.9H5.6c-2.1,0-3.8-1.7-3.8-3.8v-3.6c0-1.8,0.8-3.5,2.2-4.6l3.3-2.6c0.4-0.3,0.5-0.8,0.2-1.2L5.3,2.6
	c-0.1-0.2-0.1-0.4,0-0.5c0-0.1,0.2-0.3,0.4-0.3h11.6c0.3,0,0.4,0.2,0.4,0.3c0,0.1,0.1,0.3,0,0.5l-2.3,3.7c-0.3,0.4-0.2,0.9,0.2,1.2
	l1.4,1.1c0.4,0.3,1,0.3,1.3-0.1c0.3-0.4,0.3-1-0.1-1.3l-0.7-0.6l1.9-2.9c0.5-0.7,0.5-1.7,0.1-2.4S18.3,0,17.4,0H5.8
	C4.9,0,4.1,0.5,3.7,1.2C3.3,2,3.3,2.9,3.8,3.7l1.9,2.9L3,8.7C2,9.4,1.3,10.4,0.8,11.4C0.3,12.5,0,13.6,0,14.8v3.6
	C0,21.5,2.5,24,5.6,24H12C12.6,24,13,23.6,13,23.1L13,23.1z M13.8,6.8c0-0.5-0.4-0.9-0.9-0.9h-2.5c-0.5,0-0.9,0.4-0.9,0.9
	s0.4,0.9,0.9,0.9h2.5C13.4,7.7,13.8,7.3,13.8,6.8z"/>
</svg>
