<?xml version="1.0" encoding="utf-8"?>
<!-- Generator: Adobe Illustrator 22.1.0, SVG Export Plug-In . SVG Version: 6.00 Build 0)  -->
<svg version="1.1" id="Capa_1" xmlns="http://www.w3.org/2000/svg" xmlns:xlink="http://www.w3.org/1999/xlink" x="0px" y="0px"
	 viewBox="0 0 21 21" style="enable-background:new 0 0 21 21;" xml:space="preserve">
<style type="text/css">
	.st0{fill:#A7A8B0;}
</style>
<path class="st0" d="M17.9,3.1c-2-2-4.6-3.1-7.4-3.1S5.1,1.1,3.1,3.1c-2,2-3.1,4.6-3.1,7.4s1.1,5.4,3.1,7.4c2,2,4.6,3.1,7.4,3.1
	s5.4-1.1,7.4-3.1c2-2,3.1-4.6,3.1-7.4S19.9,5.1,17.9,3.1L17.9,3.1z M19.8,10.5c0,0.9-0.1,1.7-0.3,2.5L18,10l-2.7-1.3V6.5l1.4-1.4
	V3.7C18.6,5.4,19.8,7.8,19.8,10.5L19.8,10.5z M10.5,1.2c0.8,0,1.6,0.1,2.3,0.3l-0.1,1.4L7.1,4.4V6L5.6,7.4v2l3.3,1.6h2.6l2.5,3.8
	v0.8l-2.4,1.2h-1.3l-1.4,2.7c-0.5-0.1-1.1-0.2-1.6-0.4l0.9-1.8l-1.5-1.5v-2.7L3.7,9.9H1.3C1.6,5.1,5.6,1.2,10.5,1.2L10.5,1.2z
	 M1.3,11.1h1.9l2.5,2.6v2.7l1.3,1.3l-0.6,1.1C3.5,17.4,1.5,14.5,1.3,11.1z M10.5,19.8C10.5,19.8,10.4,19.8,10.5,19.8l0.7-1.6h0.8
	l3.3-1.6v-2l-3.1-4.7h-3L6.9,8.7V7.9l1.4-1.4V5.3l5.6-1.4l0.1-2c0.5,0.2,1.1,0.5,1.5,0.8v1.9L14.1,6v3.5l3,1.5l1.7,3.6
	C17.3,17.6,14.2,19.8,10.5,19.8z"/>
</svg>
