<?xml version="1.0" encoding="utf-8"?>
<!-- Generator: Adobe Illustrator 22.1.0, SVG Export Plug-In . SVG Version: 6.00 Build 0)  -->
<svg version="1.1" id="Shape_6_copy_2_1_" opacity="0.6"
	 xmlns="http://www.w3.org/2000/svg" xmlns:xlink="http://www.w3.org/1999/xlink" x="0px" y="0px" viewBox="0 0 58 17"
	 style="enable-background:new 0 0 58 17;" xml:space="preserve">
<style type="text/css">
	.st0{fill:#CBCCD2;}
</style>
<path class="st0" d="M29.5,17h-1v-4h1V17z M29.5,11h-1V7h1V11z M29.5,5h-1V1h1V5z"/>
<path class="st0" d="M26.7,17h-4v-1h4V17z M20.7,17h-4v-1h4V17z M14.7,17h-4v-1h4V17z M8.7,17h-4v-1h4V17z M2.7,17H0v-1h2.7V17z"/>
<path class="st0" d="M58,17h-2.7v-1H58V17z M53.3,17h-4v-1h4V17z M47.3,17h-4v-1h4V17z M41.3,17h-4v-1h4V17z M35.3,17h-4v-1h4V17z"
	/>
</svg>
