<?xml version="1.0" encoding="utf-8"?>
<!-- Generator: Adobe Illustrator 22.1.0, SVG Export Plug-In . SVG Version: 6.00 Build 0)  -->
<svg version="1.1" id="Layer_1" xmlns="http://www.w3.org/2000/svg" xmlns:xlink="http://www.w3.org/1999/xlink" x="0px" y="0px"
	 viewBox="0 0 24 24" style="enable-background:new 0 0 24 24;" xml:space="preserve">
<style type="text/css">
	.st0{fill:#FF9FA0;}
</style>
<g>
	<g>
		<path class="st0" d="M22.9,0h-8.7c-0.6,0-1.1,0.5-1.1,1.1s0.5,1.1,1.1,1.1h6.1L9,13.4c-0.4,0.4-0.4,1.1,0,1.5
			c0.2,0.2,0.5,0.3,0.8,0.3c0.3,0,0.6-0.1,0.8-0.3L21.8,3.7v6.1c0,0.6,0.5,1.1,1.1,1.1S24,10.4,24,9.8V1.1C24,0.5,23.5,0,22.9,0z"/>
	</g>
</g>
<g>
	<g>
		<path class="st0" d="M18.5,10.9c-0.6,0-1.1,0.5-1.1,1.1v9.8H2.2V6.5H12c0.6,0,1.1-0.5,1.1-1.1S12.6,4.4,12,4.4H1.1
			C0.5,4.4,0,4.9,0,5.5v17.5C0,23.5,0.5,24,1.1,24h17.5c0.6,0,1.1-0.5,1.1-1.1V12C19.6,11.4,19.1,10.9,18.5,10.9z"/>
	</g>
</g>
</svg>
