<?xml version="1.0" encoding="utf-8"?>
<!-- Generator: Adobe Illustrator 22.1.0, SVG Export Plug-In . SVG Version: 6.00 Build 0)  -->
<svg version="1.1" id="Capa_1" xmlns="http://www.w3.org/2000/svg" xmlns:xlink="http://www.w3.org/1999/xlink" x="0px" y="0px"
	 viewBox="0 0 27 27" style="enable-background:new 0 0 27 27;" xml:space="preserve">
<style type="text/css">
	.st0{fill:#9F9F9F;}
</style>
<g>
	<g>
		<g>
			<path class="st0" d="M23.3,4.2C20.7,1.5,17.2,0,13.5,0C6.1,0,0,6,0,13.5c0,3.7,1.5,7.2,4.2,9.8c0,0,0,0,0,0
				c0.1,0.1,0.2,0.1,0.2,0.2c0.2,0.2,0.4,0.4,0.7,0.6c0.1,0.1,0.2,0.2,0.4,0.3c0.2,0.2,0.4,0.3,0.7,0.5c0.2,0.1,0.3,0.2,0.5,0.3
				c0.2,0.1,0.4,0.3,0.6,0.4c0.2,0.1,0.4,0.2,0.6,0.3C8,25.8,8.2,25.9,8.4,26s0.4,0.2,0.6,0.2c0.2,0.1,0.4,0.1,0.6,0.2
				c0.2,0.1,0.5,0.1,0.7,0.2c0.2,0,0.4,0.1,0.6,0.1c0.3,0.1,0.5,0.1,0.8,0.1c0.2,0,0.3,0.1,0.5,0.1c0.4,0,0.9,0.1,1.3,0.1
				c0.4,0,0.9,0,1.3-0.1c0.2,0,0.3,0,0.5-0.1c0.3,0,0.5-0.1,0.8-0.1c0.2,0,0.4-0.1,0.6-0.1c0.2-0.1,0.5-0.1,0.7-0.2
				c0.2-0.1,0.4-0.1,0.6-0.2c0.2-0.1,0.4-0.1,0.6-0.2s0.4-0.2,0.6-0.3c0.2-0.1,0.4-0.2,0.6-0.3c0.2-0.1,0.4-0.2,0.6-0.4
				c0.2-0.1,0.3-0.2,0.5-0.3c0.2-0.1,0.4-0.3,0.7-0.5c0.1-0.1,0.3-0.2,0.4-0.3c0.2-0.2,0.4-0.4,0.7-0.6c0.1-0.1,0.2-0.1,0.2-0.2
				c0,0,0,0,0,0C28.2,18.1,28.4,9.5,23.3,4.2z M21.1,22.2c-0.2,0.2-0.4,0.3-0.5,0.4c-0.1,0.1-0.2,0.2-0.3,0.2
				c-0.2,0.1-0.4,0.2-0.5,0.4c-0.1,0.1-0.3,0.2-0.4,0.2c-0.2,0.1-0.3,0.2-0.5,0.3c-0.2,0.1-0.3,0.2-0.5,0.2s-0.3,0.2-0.5,0.2
				c-0.2,0.1-0.4,0.1-0.5,0.2c-0.2,0.1-0.3,0.1-0.5,0.2c-0.2,0.1-0.4,0.1-0.6,0.2c-0.2,0-0.3,0.1-0.5,0.1c-0.2,0-0.5,0.1-0.7,0.1
				c-0.1,0-0.3,0-0.4,0.1c-0.4,0-0.7,0.1-1.1,0.1c-0.4,0-0.8,0-1.1-0.1c-0.1,0-0.3,0-0.4-0.1c-0.2,0-0.5-0.1-0.7-0.1
				c-0.2,0-0.3-0.1-0.5-0.1c-0.2,0-0.4-0.1-0.6-0.2c-0.2,0-0.3-0.1-0.5-0.2c-0.2-0.1-0.4-0.1-0.5-0.2C9,24.2,8.9,24.1,8.7,24
				c-0.2-0.1-0.3-0.1-0.5-0.2c-0.2-0.1-0.3-0.2-0.5-0.3c-0.1-0.1-0.3-0.2-0.4-0.2c-0.2-0.1-0.4-0.2-0.5-0.4
				c-0.1-0.1-0.2-0.2-0.3-0.2c-0.2-0.1-0.4-0.3-0.5-0.4c0,0-0.1-0.1-0.1-0.1c0-3.3,2.1-6.2,5.3-7.2c1.6,0.7,3.4,0.7,4.9,0
				c3.1,1.1,5.2,3.9,5.3,7.2C21.2,22.1,21.1,22.2,21.1,22.2z M10.1,7.7c1-1.9,3.4-2.5,5.3-1.5s2.5,3.4,1.5,5.3
				c-0.3,0.6-0.9,1.1-1.5,1.5c0,0,0,0,0,0c-0.3,0.1-0.5,0.3-0.8,0.3c-0.1,0-0.1,0-0.1,0c-0.1,0-0.2,0-0.3,0.1
				c-0.2,0-0.4,0.1-0.6,0.1h-0.1c-0.2,0-0.4,0-0.6-0.1c-0.1,0-0.2,0-0.3-0.1c-0.1,0-0.1,0-0.1,0c-0.3-0.1-0.6-0.2-0.8-0.3l0,0
				C9.7,11.9,9.1,9.6,10.1,7.7z M22.9,20.2L22.9,20.2c-0.6-2.9-2.5-5.3-5.2-6.6c2.2-2.4,2-6-0.3-8.2s-6-2-8.2,0.3
				c-2,2.2-2,5.6,0,7.8c-2.6,1.3-4.5,3.8-5.2,6.6C0.4,15,1.6,7.8,6.8,4.1s12.4-2.5,16.1,2.7c1.4,2,2.1,4.3,2.1,6.7
				C25.1,15.9,24.3,18.2,22.9,20.2z"/>
		</g>
	</g>
</g>
</svg>
