<?xml version="1.0" encoding="utf-8"?>
<!-- Generator: Adobe Illustrator 22.1.0, SVG Export Plug-In . SVG Version: 6.00 Build 0)  -->
<svg version="1.1" id="Capa_1" xmlns="http://www.w3.org/2000/svg" xmlns:xlink="http://www.w3.org/1999/xlink" x="0px" y="0px"
	 viewBox="0 0 23 23" style="enable-background:new 0 0 23 23;" xml:space="preserve">
<style type="text/css">
	.st0{fill:#D84F50;}
</style>
<g>
	<g>
		<path class="st0" d="M22.8,16.1c0-0.1-0.1-0.3-0.1-0.4c-0.4-1.2-1.6-1.8-2.8-1.6c-0.4,0.1-0.8-0.2-0.8-0.6l-0.6-3.9
			c-0.5-3.3-2.9-6-6.1-6.9c-0.3-1.8-2-3-3.7-2.7C6.9,0.3,5.7,2,6,3.7c-2.8,1.7-4.2,5-3.7,8.2L2.9,16c0.1,0.4-0.2,0.8-0.6,0.8
			c-1.2,0.2-2.1,1.2-2.2,2.4c0,1.4,1.1,2.5,2.4,2.5c0,0,0,0,0,0c0.1,0,0.3,0,0.4,0l2.5-0.4c0.9,1.6,2.9,2.1,4.4,1.2
			c0.8-0.5,1.4-1.3,1.6-2.2l9.3-1.5C22.1,18.7,23,17.5,22.8,16.1z M9,1.7c0.1,0,0.2,0,0.3,0c0.5,0,1.1,0.3,1.4,0.7h0
			c-0.3,0-0.6,0-0.9,0c-0.3,0-0.6,0.1-1,0.1c-0.1,0-0.1,0-0.2,0C8.2,2.7,8,2.8,7.7,2.9c0,0,0,0-0.1,0C7.8,2.3,8.3,1.8,9,1.7z
			 M8.3,21.4c-0.3,0-0.7-0.1-1-0.3l2.3-0.4C9.4,21.1,8.9,21.4,8.3,21.4z M21.1,16.9c-0.1,0.2-0.3,0.3-0.6,0.4l-9.9,1.6l-4.8,0.8
			l-3.1,0.5c-0.2,0-0.5,0-0.7-0.2c-0.2-0.2-0.3-0.4-0.3-0.6c0-0.4,0.4-0.8,0.8-0.8c1.3-0.2,2.2-1.4,2-2.7l-0.6-4.1
			C3.5,8.9,4.8,6.2,7.2,4.9c0,0,0,0,0,0C8,4.5,8.9,4.2,9.8,4.1c0.3,0,0.5,0,0.8,0l0.1,0c0.3,0,0.6,0.1,0.8,0.1c0,0,0,0,0,0
			c2.8,0.6,4.9,2.9,5.3,5.7l0.6,3.9c0.2,1.3,1.4,2.2,2.7,2c0.4-0.1,0.8,0.1,1,0.5C21.2,16.5,21.2,16.7,21.1,16.9z"/>
	</g>
</g>
</svg>
