<?xml version="1.0" encoding="utf-8"?>
<!-- Generator: Adobe Illustrator 22.1.0, SVG Export Plug-In . SVG Version: 6.00 Build 0)  -->
<svg version="1.1" id="Capa_1" xmlns="http://www.w3.org/2000/svg" xmlns:xlink="http://www.w3.org/1999/xlink" x="0px" y="0px"
	 viewBox="0 0 19 16" style="enable-background:new 0 0 19 16;" xml:space="preserve">
<style type="text/css">
	.st0{fill:#9CA3AF;}
</style>
<g>
	<g>
		<path class="st0" d="M16.2,8.6h-1.5C14.9,9,15,9.5,15,9.9v5.5c0,0.2,0,0.4-0.1,0.5h2.4c0.9,0,1.6-0.7,1.6-1.6v-3
			C18.9,9.9,17.7,8.6,16.2,8.6z"/>
	</g>
</g>
<g>
	<g>
		<path class="st0" d="M4,9.9C4,9.5,4.1,9,4.3,8.6H2.8c-1.5,0-2.7,1.2-2.7,2.7v3c0,0.9,0.7,1.6,1.6,1.6h2.4C4.1,15.8,4,15.6,4,15.5
			V9.9z"/>
	</g>
</g>
<g>
	<g>
		<path class="st0" d="M11.2,7.2H7.8c-1.5,0-2.7,1.2-2.7,2.7v5.5c0,0.3,0.2,0.5,0.5,0.5h7.7c0.3,0,0.5-0.2,0.5-0.5V9.9
			C13.9,8.4,12.7,7.2,11.2,7.2z"/>
	</g>
</g>
<g>
	<g>
		<path class="st0" d="M9.5,0C7.7,0,6.2,1.5,6.2,3.3c0,1.2,0.7,2.3,1.7,2.9c0.5,0.3,1,0.4,1.6,0.4c0.6,0,1.1-0.2,1.6-0.4
			c1-0.6,1.7-1.6,1.7-2.9C12.8,1.5,11.3,0,9.5,0z"/>
	</g>
</g>
<g>
	<g>
		<path class="st0" d="M3.8,3.1c-1.4,0-2.4,1.1-2.4,2.4s1.1,2.4,2.4,2.4c0.3,0,0.7-0.1,1-0.2c0.5-0.2,0.9-0.6,1.2-1.1
			c0.2-0.3,0.3-0.7,0.3-1.2C6.2,4.2,5.1,3.1,3.8,3.1z"/>
	</g>
</g>
<g>
	<g>
		<path class="st0" d="M15.2,3.1c-1.4,0-2.4,1.1-2.4,2.4c0,0.4,0.1,0.8,0.3,1.2c0.3,0.5,0.7,0.9,1.2,1.1c0.3,0.1,0.6,0.2,1,0.2
			c1.4,0,2.4-1.1,2.4-2.4S16.6,3.1,15.2,3.1z"/>
	</g>
</g>
</svg>
