<?xml version="1.0" encoding="utf-8"?>
<!-- Generator: Adobe Illustrator 22.1.0, SVG Export Plug-In . SVG Version: 6.00 Build 0)  -->
<svg version="1.1" id="Layer_1" xmlns="http://www.w3.org/2000/svg" xmlns:xlink="http://www.w3.org/1999/xlink" x="0px" y="0px"
	 viewBox="0 0 64 64" style="enable-background:new 0 0 64 64;" xml:space="preserve">
<style type="text/css">
	.st0{fill:#7E8088;}
</style>
<path class="st0" d="M56.5,49c-1.2,0-2.4,0.3-3.4,0.8l-5.6-5.6c2.7-3.4,4.3-7.6,4.3-12.2c0-4.5-1.5-8.7-4.1-12.1l5.7-5.7
	c1,0.5,2.1,0.7,3.2,0.7c1.4,0,2.5-1.1,2.5-2.5S57.9,10,56.5,10C55.1,10,54,8.9,54,7.5S55.1,5,56.5,5S59,6.1,59,7.5
	c0,1.4,1.1,2.5,2.5,2.5S64,8.9,64,7.5C64,3.4,60.6,0,56.5,0S49,3.4,49,7.5c0,1.2,0.3,2.3,0.7,3.2l-5.7,5.7
	c-3.3-2.6-7.5-4.1-12.1-4.1c-4.6,0-8.9,1.6-12.2,4.3l-5.6-5.6c0.5-1,0.8-2.2,0.8-3.4C15,3.4,11.6,0,7.5,0S0,3.4,0,7.5S3.4,15,7.5,15
	c1.1,0,2.1-0.2,3-0.6l5.7,5.7c-2.5,3.3-4,7.4-4,11.9c0,4.5,1.5,8.7,4.1,12.1l-5.7,5.7c-1-0.5-2.1-0.7-3.2-0.7C3.4,49,0,52.4,0,56.5
	S3.4,64,7.5,64c1.4,0,2.5-1.1,2.5-2.5S8.9,59,7.5,59C6.1,59,5,57.9,5,56.5S6.1,54,7.5,54s2.5,1.1,2.5,2.5c0,1.4,1.1,2.5,2.5,2.5
	s2.5-1.1,2.5-2.5c0-1.2-0.3-2.3-0.7-3.2l5.7-5.7c3.3,2.6,7.5,4.1,12.1,4.1c4.5,0,8.6-1.5,11.9-4l5.7,5.7c-0.4,0.9-0.6,2-0.6,3
	c0,4.1,3.4,7.5,7.5,7.5c1.4,0,2.5-1.1,2.5-2.5S57.9,59,56.5,59c-1.4,0-2.5-1.1-2.5-2.5s1.1-2.5,2.5-2.5s2.5,1.1,2.5,2.5
	c0,1.4,1.1,2.5,2.5,2.5s2.5-1.1,2.5-2.5C64,52.4,60.6,49,56.5,49z M46.8,32c0,3.5-1.2,6.7-3.3,9.3c-1-2.5-2.8-4.5-5-5.9
	c1.1-1.4,1.8-3.2,1.8-5.1c0-4.5-3.7-8.3-8.3-8.3s-8.3,3.7-8.3,8.3c0,1.9,0.7,3.7,1.8,5.1c-2.2,1.4-4,3.4-5,5.9
	c-2.1-2.5-3.3-5.8-3.3-9.3c0-8.1,6.6-14.8,14.8-14.8S46.8,23.9,46.8,32z M32,33.5c-1.8,0-3.3-1.5-3.3-3.3c0-1.8,1.5-3.3,3.3-3.3
	s3.3,1.5,3.3,3.3C35.3,32,33.8,33.5,32,33.5z M5,7.5C5,6.1,6.1,5,7.5,5S10,6.1,10,7.5S8.9,10,7.5,10S5,8.9,5,7.5z M24.7,44.8
	c0.5-3.5,3.6-6.3,7.3-6.3s6.8,2.7,7.3,6.3c-2.1,1.2-4.6,1.9-7.3,1.9S26.9,46,24.7,44.8z"/>
</svg>
