<?xml version="1.0" encoding="utf-8"?>
<!-- Generator: Adobe Illustrator 22.1.0, SVG Export Plug-In . SVG Version: 6.00 Build 0)  -->
<svg version="1.1" id="Capa_1" xmlns="http://www.w3.org/2000/svg" xmlns:xlink="http://www.w3.org/1999/xlink" x="0px" y="0px"
	 viewBox="0 0 16 16" style="enable-background:new 0 0 16 16;" xml:space="preserve">
<style type="text/css">
	.st0{fill:#9CA3AF;}
</style>
<g>
	<g>
		<path class="st0" d="M1.8,6.7c0.5,0,1-0.3,1.2-0.8c0.8-2,2.8-3.3,5-3.3c1.2,0,2.4,0.4,3.3,1.1l-0.7,0.1c-0.2,0-0.4,0.2-0.5,0.5
			c0,0.2,0.1,0.5,0.3,0.6l3.9,1.8c0.2,0.1,0.4,0.1,0.5,0c0.2-0.1,0.3-0.3,0.3-0.5l0-4.3c0-0.2-0.2-0.5-0.4-0.5
			c-0.2-0.1-0.5,0-0.6,0.2l-0.5,0.8C12.2,0.9,10.2,0,8,0C4.7,0,1.8,2,0.6,4.9C0.5,5.3,0.5,5.7,0.7,6.1C1,6.5,1.4,6.7,1.8,6.7z"/>
		<path class="st0" d="M15.3,9.9c-0.2-0.4-0.6-0.6-1.1-0.6c-0.5,0-1,0.3-1.2,0.8c-0.8,2-2.8,3.3-5,3.3c-1.2,0-2.4-0.4-3.3-1.1
			l0.7-0.1c0.2,0,0.4-0.2,0.5-0.5c0-0.2-0.1-0.5-0.3-0.6L1.6,9.4c-0.2-0.1-0.4-0.1-0.5,0C0.9,9.5,0.8,9.7,0.8,9.9l0,4.3
			c0,0.2,0.2,0.5,0.4,0.5c0.2,0.1,0.5,0,0.6-0.2l0.5-0.8C3.8,15.1,5.8,16,8,16c3.3,0,6.2-2,7.4-4.9C15.5,10.7,15.5,10.3,15.3,9.9z"
			/>
	</g>
</g>
</svg>
