<?xml version="1.0" encoding="utf-8"?>
<!-- Generator: Adobe Illustrator 22.1.0, SVG Export Plug-In . SVG Version: 6.00 Build 0)  -->
<svg version="1.1" id="Capa_1" xmlns="http://www.w3.org/2000/svg" xmlns:xlink="http://www.w3.org/1999/xlink" x="0px" y="0px"
	 viewBox="0 0 53 53" style="enable-background:new 0 0 53 53;" xml:space="preserve">
<style type="text/css">
	.st0{fill:#EF9719;}
</style>
<g>
	<g>
		<path class="st0" d="M51.6,4.9c-1-1-2.3-1.6-3.8-1.6c-2.8,0-5.2,2.3-5.2,5.2c0,0.5,0.1,0.9,0.2,1.4l-5.6,4c-2-2-5.3-2-7.3,0
			c-1.4,1.4-1.9,3.5-1.2,5.4l-5.2,4.3c-1.6-2.3-4.8-2.9-7.2-1.3c-0.9,0.6-1.6,1.5-1.9,2.5L10.2,23c-0.5-2.8-3.1-4.7-5.9-4.2
			c-2.8,0.5-4.7,3.1-4.2,5.9S3.2,29.4,6,29c1.9-0.3,3.4-1.6,4-3.4l4.3,1.7c0.5,2.8,3.1,4.7,5.9,4.2c2.5-0.4,4.3-2.6,4.3-5.1
			c0-0.2,0-0.3,0-0.5l5.6-4.7c2.1,1.9,5.4,1.8,7.3-0.3c1.2-1.3,1.6-3.2,1.1-5l5.5-3.9c1.9,2.1,5.2,2.2,7.3,0.2
			C53.5,10.3,53.5,7,51.6,4.9z M5.2,26.6c-1.5,0-2.7-1.2-2.7-2.7s1.2-2.7,2.7-2.7s2.7,1.2,2.7,2.7S6.6,26.6,5.2,26.6z M19.4,29.2
			c-1.5,0-2.7-1.2-2.7-2.7s1.2-2.7,2.7-2.7s2.7,1.2,2.7,2.7S20.9,29.2,19.4,29.2z M33.6,20.1c-1.5,0-2.7-1.2-2.7-2.7
			s1.2-2.7,2.7-2.7s2.7,1.2,2.7,2.7S35.1,20.1,33.6,20.1z M47.8,11.2c-1.5,0-2.7-1.2-2.7-2.7s1.2-2.7,2.7-2.7s2.7,1.2,2.7,2.7
			C50.5,10,49.3,11.2,47.8,11.2z"/>
	</g>
</g>
<g>
	<g>
		<path class="st0" d="M51.3,17.7h-6.9c-0.7,0-1.2,0.6-1.2,1.2v29.4c0,0.7,0.6,1.2,1.2,1.2h6.9c0.7,0,1.2-0.6,1.2-1.2V19
			C52.5,18.3,52,17.7,51.3,17.7z M50.1,47.2h-4.4v-27h4.4V47.2z"/>
	</g>
</g>
<g>
	<g>
		<path class="st0" d="M37.1,26.6h-6.9c-0.7,0-1.2,0.6-1.2,1.2v20.5c0,0.7,0.6,1.2,1.2,1.2h6.9c0.7,0,1.2-0.6,1.2-1.2V27.8
			C38.3,27.2,37.8,26.6,37.1,26.6z M35.9,47.2h-4.4V29.1h4.4V47.2z"/>
	</g>
</g>
<g>
	<g>
		<path class="st0" d="M22.8,35.9h-6.9c-0.7,0-1.2,0.6-1.2,1.2v11.3c0,0.7,0.6,1.2,1.2,1.2h6.9c0.7,0,1.2-0.6,1.2-1.2V37.1
			C24,36.4,23.5,35.9,22.8,35.9z M21.6,47.2h-4.4v-8.9h4.4V47.2z"/>
	</g>
</g>
<g>
	<g>
		<path class="st0" d="M8.6,33.3H1.7c-0.7,0-1.2,0.6-1.2,1.2v13.9c0,0.7,0.6,1.2,1.2,1.2h6.9c0.7,0,1.2-0.6,1.2-1.2V34.5
			C9.8,33.8,9.3,33.3,8.6,33.3z M7.4,47.2H2.9V35.7h4.4V47.2z"/>
	</g>
</g>
</svg>
