<?xml version="1.0" encoding="utf-8"?>
<!-- Generator: Adobe Illustrator 22.1.0, SVG Export Plug-In . SVG Version: 6.00 Build 0)  -->
<svg version="1.1" id="Capa_1" xmlns="http://www.w3.org/2000/svg" xmlns:xlink="http://www.w3.org/1999/xlink" x="0px" y="0px"
	 viewBox="0 0 64 64" style="enable-background:new 0 0 64 64;" xml:space="preserve">
<style type="text/css">
	.st0{fill:#F69697;}
</style>
<g>
	<path class="st0" d="M22.9,50.7c0-3.7-1.8-7-4.5-9.1l9.8-17.6c1.2,0.4,2.5,0.6,3.8,0.6c1.3,0,2.6-0.2,3.8-0.7l9.8,17.6
		c-2.7,2.1-4.5,5.4-4.5,9.1c0,6.3,5.1,11.4,11.4,11.4S64,57,64,50.7s-5.1-11.4-11.4-11.4c-1.3,0-2.6,0.2-3.8,0.7L39,22.4
		c2.7-2.1,4.5-5.4,4.5-9.1C43.5,7,38.3,1.8,32,1.8S20.6,7,20.6,13.3c0,3.7,1.8,7,4.5,9.1l-9.8,17.6c-1.2-0.4-2.5-0.7-3.8-0.7
		C5.1,39.3,0,44.4,0,50.7s5.1,11.4,11.4,11.4S22.9,57,22.9,50.7z M60.4,50.7c0,4.3-3.5,7.9-7.9,7.9s-7.9-3.5-7.9-7.9
		s3.5-7.9,7.9-7.9S60.4,46.4,60.4,50.7z M24.2,13.3c0-4.3,3.5-7.9,7.9-7.9s7.9,3.5,7.9,7.9s-3.5,7.9-7.9,7.9S24.2,17.6,24.2,13.3z
		 M3.6,50.7c0-4.3,3.5-7.9,7.9-7.9s7.9,3.5,7.9,7.9s-3.5,7.9-7.9,7.9S3.6,55,3.6,50.7z"/>
</g>
</svg>
